<svg width="32" height="32" viewBox="0 0 32 32" fill="none" xmlns="http://www.w3.org/2000/svg">
<path fill-rule="evenodd" clip-rule="evenodd" d="M32 0H0V32H32V0ZM6.49256 12.8594H10.6365V25.3102H6.49256V12.8594ZM10.9097 9.00777C10.8828 7.78697 10.0098 6.85714 8.59217 6.85714C7.17456 6.85714 6.24777 7.78697 6.24777 9.00777C6.24777 10.2033 7.14716 11.1599 8.53838 11.1599H8.56486C10.0098 11.1599 10.9097 10.2033 10.9097 9.00777ZM20.8097 12.567C23.5366 12.567 25.5809 14.3469 25.5809 18.1712L25.5808 25.3102H21.437V18.649C21.437 16.9758 20.8373 15.8341 19.3372 15.8341C18.1924 15.8341 17.5105 16.6038 17.211 17.3472C17.1014 17.6136 17.0745 17.9848 17.0745 18.3569V25.3105H12.9301C12.9301 25.3105 12.9847 14.028 12.9301 12.8597H17.0745V14.6232C17.6245 13.7754 18.6095 12.567 20.8097 12.567Z" fill="#303633"/>
</svg>
