<svg width="60" height="59" viewBox="0 0 60 59" fill="none" xmlns="http://www.w3.org/2000/svg">
<rect x="2.83167" y="3.05238" width="54.3367" height="53.6185" stroke="#0B0B0B" stroke-width="4.33665"/>
<path d="M17.6095 40.1575V40.4687L17.8887 40.6063C18.6284 40.9708 19.4771 41.1445 20.4207 41.1445C22.0119 41.1445 23.2619 40.5052 24.0985 39.2241C24.9135 37.9762 25.286 36.1807 25.286 33.9085V5V4.49962H24.7856H22.85H22.3496V5V33.9475C22.3496 35.6462 22.1429 36.7629 21.7996 37.385L21.7979 37.3882C21.6283 37.701 21.4285 37.9116 21.2075 38.046C20.9873 38.18 20.7178 38.2555 20.3812 38.2555C19.5608 38.2555 18.8697 38.1328 18.2966 37.9023L17.6095 37.6258V38.3665V40.1575Z" fill="black" stroke="black" stroke-width="1.00077"/>
<path d="M42.39 19.8426V19.5314L42.1108 19.3938C41.3711 19.0293 40.5224 18.8556 39.5788 18.8556C37.9876 18.8556 36.7376 19.4949 35.9009 20.776C35.086 22.0239 34.7135 23.8194 34.7135 26.0916L34.7135 55.0001L34.7135 55.5005H35.2139H37.1494H37.6498V55.0001L37.6498 26.0526C37.6498 24.3539 37.8566 23.2372 38.1998 22.6151L38.1998 22.6151L38.2016 22.6119C38.3712 22.299 38.5709 22.0885 38.792 21.9541C39.0122 21.8201 39.2816 21.7446 39.6183 21.7446C40.4387 21.7446 41.1298 21.8673 41.7028 22.0978L42.39 22.3743V21.6336V19.8426Z" fill="black" stroke="black" stroke-width="1.00077"/>
<line x1="32.8091" y1="29.798" x2="42.6405" y2="29.798" stroke="black" stroke-width="4.00306"/>
</svg>
